<svg version="1.1" viewBox="0 0 2333.098 500" xmlns="http://www.w3.org/2000/svg" xmlns:svg="http://www.w3.org/2000/svg">
  <defs>
    <linearGradient id="a" x1="361.9724" x2="361.9724" y1="275.1942" y2="-167.3197" gradientTransform="matrix(0.9997544,0,0,-1,0,304)" gradientUnits="userSpaceOnUse">
      <stop offset="0" stop-color="#0f33d5"/>
      <stop offset=".275" stop-color="#0c2ac8"/>
      <stop offset=".55" stop-color="#081bb3"/>
      <stop offset=".82" stop-color="#03099b"/>
      <stop offset="1" stop-color="#00008c"/>
    </linearGradient>
    <linearGradient id="b" x1="1832.09" x2="1832.09" y1="22.2308" y2="41.4615" gradientTransform="matrix(79.79566,0,0,26,-144627.2,-578)" gradientUnits="userSpaceOnUse">
      <stop offset="0" stop-color="#fe0000"/>
      <stop offset=".55" stop-color="#fc0000"/>
      <stop offset=".7" stop-color="#f90000"/>
      <stop offset=".82" stop-color="#e00"/>
      <stop offset=".9" stop-color="#de0000"/>
      <stop offset="1" stop-color="#c70000"/>
    </linearGradient>
  </defs>
  <path fill="url(#a)" d="M499.5772 464.2c10.4974 4.6 21.7946 7.1 33.1918 7.1 26.0936.6 40.39-9.4 50.8875-32.8l140.0655-312c-9.0977-4.1-18.9953-6.4-28.9928-6.7-18.0956-.4-42.2896 3.3-57.5859 40.1l-45.2889 106.9-88.9781-144.6c-9.7975-2.6-19.8951-4-29.9926-4.2-31.4922 0-48.9879 11.5-67.1835 31.3l-86.4787 94.4 69.483 109.4c12.8968 19.9 29.7926 30.1 57.2858 30.1 13.6966.2 27.2933-2.3 39.9902-7.5l-83.7794-126 59.3854-62.9 97.3761 152.7ZM315.9223 346.3c0 23-8.9977 36.2-53.9867 36.2-5.3987 0-10.7974-.4-16.096-1.1V76.2c0-23.2 7.898-47.4 53.1869-47.4 5.6986 0 11.3971.6 16.8958 1.7Zm-92.8771-46.1c0 43-28.0931 74.2-85.0791 80.4-41.2899 4.4-101.0752-.8-129.4682-4-.9998-4.9-1.5996-9.9-1.6996-15 0-37.4 20.195-46 39.1904-46 19.7951 0 50.8875 3.5 73.9818 3.5 25.4937 0 33.1918-8.6 33.1918-16.9 0-10.7-10.1974-15.2-29.9926-19L68.983 272.8C23.9941 264.2 0 233 0 200c0-40.1 28.393-73.6 84.2793-79.8 42.2895-4.6 93.7769.6 121.97 4 .9998 4.7 1.4996 9.5 1.4996 14.4 0 37.4-19.7952 45.5-38.7904 45.5-14.5965 0-37.2909-2.7-63.1845-2.7-26.2935 0-37.2908 7.3-37.2908 16.1 0 9.4 10.3974 13.2 26.8933 16.1l51.6873 9.6c53.087 9.7 75.9814 40 75.9814 77Z"/>
  <path fill="url(#b)" d="M2299.398 0H831.6473c-18.2994 0-33.2989 15-33.2989 33.3v433.4c0 18.3 14.9995 33.3 33.2989 33.3H2299.799c18.747 0 33.299-15 33.299-33.3V33.3c0-18.3676-14.894-33.3-33.7-33.3Z"/>
  <path fill="#ffffff" d="M894.4704 359.3167c-2.9027-20.4 3.1029-31.5997 15.214-31.5997 11.3106 0 38.6357 12.3 76.9712 12.3 40.4374 0 55.5514-14.4183 55.5514-32.7003 0-13.3-5.905-24.8997-42.239-34.8997l-41.7386-11.3003c-46.2429-12.1-64.2595-35.4-64.2595-63.8 0-35.4 27.9259-66.8997 91.3845-66.8997 28.3266 0 63.7586 6.3997 85.4796 14.7997 3.803 20-2.503 31.1003-14.614 31.1003-10.81 0-35.433-10.4-70.0648-10.4-37.5347 0-51.4478 12.5997-51.4478 29.2997 0 6.9246 1.9635 13.6343 10.4971 19.8663 5.8849 4.2976 14.8944 8.3154 28.5392 12.2337l42.5393 11.7c20.121 5.6284 34.116 11.942 45.664 21.3459 14.805 12.0557 21.098 27.1087 21.098 45.3541 0 14.5213-4.435 28.4478-14.061 39.9766-14.702 17.6081-40.677 29.7237-83.1291 29.7237-30.8284.2-68.4632-7.4003-91.3845-16.1003Z"/>
  <path fill="#ffffff" d="M1366.702 252.617c0 30.2951-8.305 56.0955-22.098 75.7707-21.31 30.3976-55.48 47.129-91.384 47.129-35.426 0-63.847-16.2997-81.359-39.9997v98.6997c0 9.2-5.057 15.4-21.216 15.4-7.905 0-15.411-.8-19.213-2.1v-312.5c3.802-.8 11.208-2.1 19.213-2.1 15.812 0 21.216 5.8 21.216 15.4v22.5c17.112-23.8 45.933-40.4 81.459-40.4 59.143 0 113.382 45.4003 113.382 122.2003Zm-40.83.3997c0-51.7-34.425-87.1-80.658-87.1-31.222 0-59.944 18.3-73.353 44.6v85c13.309 26.7 42.884 44.6 73.853 44.6 45.48 0 80.158-35.4 80.158-87.1Z"/>
  <path fill="#ffffff" d="M1405.35 252.8167c0-70.1145 51.441-122.3997 120.884-122.3997 69.649 0 121.285 52.2852 121.285 122.3997 0 69.7138-51.736 122.7003-121.285 122.7003-69.148 0-120.884-52.9865-120.884-122.7003Zm201.203.1013c0-54.0891-36.171-86.9218-80.337-86.9218-43.766 0-79.938 32.8327-79.938 86.9218 0 53.191 36.372 87.221 80.138 87.221 44.065-.3992 80.137-34.03 80.137-87.221Z"/>
  <path fill="#ffffff" d="M1842.867 152.5167c0 16.2-6.499 19.7003-23.597 19.7003-33.795 0-62.492 15.8-79.989 52.5v132.7997c0 10-5.4 15.5003-21.698 15.5003-6.699 0-14.598-.9003-18.797-2.2003v-235.8c3.8-.8 11.698-2.1 18.797-2.1 16.198 0 21.698 5.8 21.698 15.4v32.9c22.897-35 57.288-52.5801 101.686-46.7.5 3.4 1.9 10.9 1.9 18Z"/>
  <path fill="#ffffff" d="M2019.442 359.2059c-20.397 10.0069-44.194 16.2111-67.891 16.2111-46.694 0-74.49-27.5188-74.49-73.35V99.529c0-10.4071 5.699-17.212 21.597-17.212 6.699 0 14.598 1.6012 18.797 2.4017v51.235h91.788c.4 3.3022 1.5 10.4071 1.5 16.211 0 14.2097-5.799 19.2131-14.598 19.2131h-78.69v127.9873c0 27.5188 12.998 40.8279 38.895 40.8279 22.154 0 37.095-10.4071 48.294-10.4071 11.099.2001 17.298 9.8067 14.798 29.42Z"/>
  <path fill="#ffffff" d="M2047.475 359.3167c-2.903-20.4 3.103-31.5997 15.214-31.5997 11.311 0 38.636 12.3 76.971 12.3 40.438 0 55.452-14.4183 55.452-32.7003 0-13.3-5.806-24.8997-42.14-34.8997l-41.738-11.3003c-46.243-12.1-64.359-35.4-64.359-63.8 0-35.4 28.025-66.8997 91.484-66.8997 28.326 0 63.759 6.3997 85.479 14.7997 3.804 20-2.502 31.1003-14.613 31.1003-10.811 0-35.433-10.4-70.065-10.4-37.535 0-51.448 12.5997-51.448 29.2997 0 6.9246 1.963 13.6343 10.497 19.8663 5.885 4.2976 14.894 8.2158 28.539 12.134l42.54 11.7c47.544 13.3 66.761 35.4997 66.761 66.7997 0 14.5213-4.435 28.4478-14.06 39.9766-14.702 17.6081-40.678 29.7237-83.13 29.7237-30.828.2-68.463-7.4003-91.384-16.1003Z"/>
</svg>
